<?xml version="1.0" standalone="no"?>
<!DOCTYPE svg PUBLIC "-//W3C//DTD SVG 20010904//EN"
 "http://www.w3.org/TR/2001/REC-SVG-20010904/DTD/svg10.dtd">
<svg version="1.0" xmlns="http://www.w3.org/2000/svg"
 width="1080.000000pt" height="1080.000000pt" viewBox="0 0 1080.000000 1080.000000"
 preserveAspectRatio="xMidYMid meet">

<g transform="translate(0.000000,1080.000000) scale(0.100000,-0.100000)"
fill="#000000" stroke="none">
<path d="M6718 8183 c33 -7 27 -20 -14 -28 -20 -3 -44 -10 -53 -14 -34 -17
-92 -41 -99 -41 -4 1 8 14 27 30 19 16 32 32 29 35 -8 9 -128 -47 -183 -85
-28 -19 -44 -37 -41 -45 6 -17 -19 -39 -34 -30 -5 3 -55 -36 -110 -87 -55 -51
-95 -94 -90 -96 17 -6 12 -16 -50 -98 -67 -89 -84 -145 -94 -304 -7 -119 -14
-145 -59 -227 -54 -101 -80 -98 -36 4 25 57 49 178 48 236 -1 41 -1 42 -10 12
-5 -16 -17 -64 -25 -105 -9 -41 -27 -113 -41 -160 l-26 -85 12 -175 c7 -96 20
-193 28 -215 8 -22 16 -49 18 -60 7 -48 30 -106 47 -121 10 -10 18 -24 18 -34
0 -23 97 -168 146 -217 23 -23 66 -54 96 -70 49 -25 62 -28 163 -27 90 0 120
4 168 23 31 12 57 26 57 31 0 18 -20 20 -53 6 -38 -15 -75 -5 -47 14 8 5 20
10 26 10 23 0 64 42 64 65 0 23 -22 50 -33 39 -7 -8 -47 5 -47 15 0 5 13 11
29 14 36 7 70 69 51 93 -18 20 -25 18 -64 -21 -19 -19 -46 -37 -61 -41 -27 -7
-143 13 -159 27 -16 15 44 21 87 10 29 -9 50 -9 67 -2 37 14 160 137 160 159
0 10 -11 29 -25 42 -28 26 -32 40 -12 40 18 0 63 49 71 77 4 12 2 32 -4 44
-13 23 -23 23 -126 -2 -55 -13 -104 -6 -104 15 0 9 20 15 69 18 95 7 154 38
213 111 57 73 67 114 39 168 -18 34 -19 40 -6 45 8 4 15 12 15 20 0 7 11 16
25 20 34 9 85 80 85 120 0 58 -5 62 -61 51 -47 -9 -52 -8 -93 21 -24 18 -56
36 -70 42 -14 5 -26 14 -26 20 0 21 54 9 93 -22 53 -43 109 -44 161 -4 43 33
58 58 59 102 1 38 -30 79 -68 88 -25 6 -152 182 -140 194 8 9 52 -42 85 -99
31 -53 67 -89 90 -89 21 0 72 39 52 40 -24 0 -9 45 16 48 29 4 28 17 -3 46
-14 13 -32 42 -40 65 -8 24 -28 63 -45 87 -41 61 -37 78 5 29 25 -29 35 -35
35 -22 0 15 7 13 40 -14 22 -18 40 -38 40 -46 0 -22 -20 -15 -31 11 -7 14 -17
22 -25 19 -11 -4 -11 -9 -2 -26 7 -12 11 -27 10 -34 -2 -7 7 -17 18 -23 11 -6
20 -17 20 -24 0 -17 44 -29 71 -21 41 13 15 121 -43 177 -33 31 -37 58 -8 58
29 0 77 -85 98 -173 4 -15 12 -28 17 -28 25 0 14 81 -22 161 -55 121 -188 204
-343 214 -36 2 -55 2 -42 -1z m-211 -109 c-9 -9 -28 6 -21 18 4 6 10 6 17 -1
6 -6 8 -13 4 -17z m-177 -134 c0 -5 -7 -10 -16 -10 -8 0 -12 5 -9 10 3 6 10
10 16 10 5 0 9 -4 9 -10z m560 -362 c0 -16 -51 -122 -57 -120 -17 6 -5 73 17
97 20 21 40 32 40 23z m-50 -259 c0 -19 -21 -49 -34 -49 -8 0 -19 7 -26 15
-10 12 -10 15 3 15 8 0 20 7 27 15 14 17 30 20 30 4z"/>
<path d="M7793 7930 c-89 -40 -141 -79 -291 -223 -7 -6 -28 -30 -48 -51 -26
-30 -37 -37 -46 -28 -7 7 -18 12 -26 12 -7 0 -52 18 -99 41 -81 39 -84 41 -64
55 21 15 28 34 13 34 -5 0 -18 -9 -30 -20 -23 -21 -62 -26 -78 -10 -6 6 -28 7
-54 2 -36 -6 -46 -12 -48 -30 -3 -18 1 -22 22 -22 32 0 33 -8 1 -42 -32 -34
-31 -40 0 -28 32 12 46 -12 22 -38 -8 -9 -18 -34 -22 -55 -4 -20 -11 -40 -16
-43 -5 -3 -9 -15 -9 -27 0 -27 -62 -79 -84 -71 -13 5 -16 -2 -16 -38 0 -56
-18 -109 -42 -126 -10 -7 -15 -19 -12 -25 4 -7 3 -9 -1 -4 -5 4 -21 -5 -37
-20 -25 -24 -28 -34 -28 -87 0 -49 -6 -71 -30 -113 -16 -28 -45 -64 -65 -78
-32 -25 -34 -29 -20 -48 8 -12 15 -38 15 -58 0 -34 3 -38 38 -46 36 -9 37 -10
37 -56 0 -26 -3 -47 -7 -47 -4 0 -23 -16 -42 -35 -24 -24 -33 -40 -29 -54 8
-32 -5 -68 -26 -74 -30 -7 -55 -74 -41 -108 7 -15 8 -42 5 -63 -6 -28 -4 -37
9 -42 9 -3 23 -1 31 6 8 6 20 8 27 4 7 -4 5 2 -4 13 -25 27 -22 53 7 88 25 29
26 29 38 10 27 -44 81 -84 129 -96 53 -12 70 -11 308 20 198 26 274 12 343
-61 34 -36 34 -53 1 -112 -14 -25 -21 -46 -16 -46 16 0 53 65 59 106 5 33 2
39 -36 74 -27 25 -66 47 -108 61 -78 26 -163 23 -306 -11 -119 -27 -241 -30
-285 -7 -35 19 -95 94 -89 111 4 12 50 13 117 3 61 -9 16 7 -67 24 -38 8 -63
18 -63 26 0 7 5 13 10 13 6 0 10 9 10 19 0 10 6 21 14 24 8 3 12 14 10 24 -4
13 7 27 34 48 32 24 38 34 37 63 -1 39 7 47 35 32 18 -10 20 -17 14 -56 -6
-40 -4 -44 14 -44 12 0 30 -9 41 -21 16 -17 23 -19 41 -9 l22 12 -20 21 c-29
31 -18 66 30 100 45 32 65 26 49 -16 -12 -31 11 -59 31 -39 7 7 22 12 33 12
16 0 21 6 21 23 -1 19 4 22 37 21 33 -1 37 1 37 23 0 20 4 24 22 21 31 -4 49
-55 27 -72 -9 -6 -19 -21 -23 -34 -4 -12 -11 -22 -15 -22 -5 0 -11 -13 -14
-30 -5 -22 -12 -30 -27 -30 -35 0 -60 -19 -60 -45 0 -26 -33 -55 -62 -55 -10
0 -18 -5 -18 -10 0 -6 21 -9 53 -8 47 3 52 1 55 -19 2 -13 10 -23 18 -23 8 0
19 -12 24 -26 8 -21 13 -24 24 -15 12 10 12 16 0 39 -8 15 -14 35 -14 45 0 24
30 34 44 15 13 -18 76 -32 76 -17 0 5 -7 12 -15 15 -24 10 -18 43 10 56 22 10
23 13 10 20 -22 13 -18 35 9 53 15 10 22 22 19 34 -3 11 0 28 6 39 7 14 7 28
-2 51 -14 37 -1 51 46 51 21 0 27 -5 27 -20 0 -11 7 -23 15 -26 8 -4 15 -16
15 -29 0 -13 7 -26 16 -29 13 -5 14 -9 5 -20 -7 -8 -9 -25 -6 -39 5 -18 2 -26
-11 -31 -16 -6 -16 -7 1 -20 11 -8 16 -20 12 -30 -5 -13 0 -16 28 -16 24 0 35
-5 35 -14 0 -22 -34 -76 -47 -76 -7 0 -13 -8 -13 -18 0 -16 7 -19 43 -17 64 3
67 4 67 23 0 20 39 62 58 62 7 0 12 -7 12 -15 0 -8 5 -15 10 -15 6 0 10 6 10
14 0 18 38 46 62 46 14 0 18 -8 18 -40 0 -22 -4 -40 -10 -40 -5 0 -10 -5 -10
-11 0 -7 10 -9 26 -5 15 4 32 2 40 -5 11 -9 15 -8 20 5 14 38 68 7 62 -36 -2
-18 -11 -24 -38 -28 l-35 -6 28 -7 c16 -5 27 -14 27 -25 0 -28 21 -42 62 -42
21 0 38 -5 38 -11 0 -6 -6 -9 -13 -6 -8 3 -20 1 -28 -4 -10 -6 -7 -9 12 -9 14
0 33 -8 42 -18 22 -24 21 -29 -3 -35 -12 -3 -20 -14 -20 -27 0 -20 2 -21 16
-9 14 11 18 10 30 -6 13 -18 14 -17 14 8 0 14 8 32 19 39 15 10 18 26 18 75 0
45 -4 64 -15 68 -9 3 -12 13 -9 25 3 13 -1 24 -14 31 -14 7 -18 16 -13 33 4
18 1 25 -14 28 -36 10 -31 109 6 108 14 -1 70 -59 77 -80 6 -19 12 -21 46 -15
l39 7 0 -36 c0 -34 1 -35 25 -26 28 11 41 -2 36 -38 -2 -17 3 -25 18 -29 23
-6 28 -32 10 -50 -8 -8 -8 -13 0 -17 21 -13 11 -58 -19 -93 -16 -18 -30 -38
-30 -44 0 -5 -11 -14 -25 -19 -16 -6 -25 -17 -25 -30 0 -13 -12 -28 -30 -38
-19 -11 -30 -25 -30 -39 0 -25 -44 -63 -73 -63 -14 0 -18 -5 -14 -19 3 -12 -3
-27 -14 -37 -14 -12 -19 -28 -17 -53 3 -33 1 -36 -42 -51 -45 -16 -60 -42 -27
-48 10 -2 17 3 17 12 0 17 27 21 49 7 8 -6 12 -18 8 -31 -3 -13 1 -33 10 -46
12 -19 19 -22 34 -14 33 18 42 47 23 75 -27 41 -5 43 28 3 23 -30 37 -38 62
-38 37 0 56 -15 56 -46 0 -12 10 -28 23 -37 21 -15 21 -16 3 -29 -15 -12 -17
-18 -7 -36 15 -28 14 -32 -6 -33 -14 0 -13 -2 5 -9 31 -13 27 -29 -12 -45 -40
-17 -47 -31 -31 -67 8 -22 14 -25 23 -16 7 7 12 8 12 4 0 -5 7 -3 15 4 8 7 25
10 39 6 15 -4 26 -1 28 6 6 17 28 0 28 -21 0 -9 -5 -22 -11 -28 -6 -6 -8 -21
-4 -33 5 -17 13 -21 31 -17 13 2 29 -2 35 -9 15 -18 -12 -60 -47 -76 -26 -12
-30 -28 -13 -59 8 -15 7 -24 -2 -35 -9 -11 -8 -18 6 -34 14 -16 15 -23 6 -34
-7 -8 -10 -24 -6 -35 3 -11 1 -28 -5 -38 -5 -10 -14 -30 -20 -45 -9 -27 -39
-39 -41 -18 -1 6 -2 14 -3 19 -3 23 -16 22 -16 -2 0 -25 31 -55 73 -70 9 -4
17 -13 17 -22 0 -8 5 -15 10 -15 6 0 10 -6 10 -14 0 -15 -21 -26 -52 -26 -29
0 -51 -26 -39 -47 6 -12 4 -28 -10 -55 -20 -39 -36 -47 -57 -26 -16 16 -62 -6
-62 -30 0 -26 -20 -42 -52 -42 -19 0 -30 -6 -34 -17 -3 -10 -11 -30 -19 -45
-16 -32 -6 -37 19 -9 10 11 28 22 41 25 12 3 25 15 28 26 3 13 13 20 29 20 12
0 34 1 48 2 21 3 26 -2 28 -25 3 -22 -1 -30 -17 -34 -12 -3 -21 -12 -21 -19 0
-8 -7 -14 -15 -14 -11 0 -15 -11 -14 -42 1 -35 3 -38 8 -16 7 30 55 73 72 63
6 -4 8 -18 5 -31 -4 -14 -2 -24 4 -24 19 0 10 -22 -16 -43 l-27 -21 27 -21 26
-21 -40 -39 c-45 -44 -48 -55 -20 -73 11 -7 20 -18 20 -25 0 -17 -50 -62 -69
-62 -9 0 -16 -9 -17 -22 -2 -32 -31 -73 -53 -73 -20 0 -41 -44 -41 -86 0 -16
-14 -30 -53 -52 -136 -77 -227 -232 -227 -388 l0 -34 174 0 173 0 14 47 c17
61 89 137 144 152 59 16 195 14 246 -4 119 -42 154 -167 68 -240 -40 -33 -103
-50 -280 -75 -386 -54 -523 -138 -574 -351 -42 -178 3 -358 110 -442 185 -146
562 -135 753 23 20 17 40 30 43 30 4 0 10 -21 14 -46 11 -79 -2 -74 197 -74
l179 0 -3 528 c-4 461 -6 534 -22 586 -35 123 -84 202 -156 255 -19 14 -34 33
-32 41 2 10 -6 15 -25 16 -48 3 -123 25 -124 37 -3 37 4 104 12 119 7 13 6 18
-3 18 -8 0 -21 9 -31 20 -20 24 -30 25 -47 5 -10 -13 -10 -19 3 -33 12 -14 14
-26 7 -55 -4 -21 -11 -41 -13 -44 -9 -9 -47 17 -47 33 0 12 -4 13 -22 3 -18
-10 -20 -9 -14 7 6 17 6 17 -12 1 -24 -22 -35 -21 -57 3 -14 16 -16 23 -7 32
7 7 12 23 12 36 0 28 55 102 76 102 8 0 14 10 14 23 0 12 10 31 23 42 l22 20
-22 3 c-35 5 -34 29 2 73 19 22 35 47 35 53 0 7 9 21 20 31 11 10 20 22 20 27
0 15 -25 8 -43 -12 -9 -11 -22 -20 -29 -20 -7 0 -35 -23 -62 -50 -27 -27 -60
-51 -74 -55 -25 -6 -52 9 -52 30 0 16 132 155 147 155 6 0 8 19 5 48 -3 41 0
52 22 79 29 34 34 63 11 63 -9 0 -21 11 -27 25 -6 14 -15 26 -20 26 -4 1 -12
2 -17 3 -5 0 -13 4 -16 8 -9 9 23 22 95 38 30 7 63 17 73 22 31 16 7 30 -47
26 -49 -3 -51 -2 -54 25 -2 15 6 57 18 92 16 49 26 65 40 65 12 0 21 -10 25
-30 10 -43 22 -45 53 -9 34 41 41 65 29 112 -10 41 2 67 33 67 10 0 21 7 24
16 9 24 7 72 -4 79 -6 4 -4 19 5 42 14 33 14 36 -6 52 -20 16 -20 18 -5 55 9
21 14 42 11 46 -3 5 -1 11 5 15 6 4 7 13 1 23 -4 9 -11 36 -15 58 -5 33 -2 47
15 68 21 27 59 36 59 13 0 -7 14 -23 30 -35 17 -13 30 -29 30 -37 0 -16 35
-21 45 -6 3 6 -3 15 -12 20 -16 10 -16 12 -2 23 12 10 14 20 7 47 -9 33 -9 34
-25 12 -20 -29 -55 -24 -63 9 -4 17 0 31 12 44 25 28 22 36 -10 30 -36 -7 -58
16 -43 45 16 29 13 39 -11 43 -13 2 -24 11 -26 22 -6 28 -30 49 -57 49 -38 0
-48 20 -25 50 17 21 20 38 18 101 -2 53 -7 76 -16 76 -24 0 -32 47 -17 97 40
138 40 155 11 276 -27 110 -78 246 -119 319 -11 21 -18 41 -14 44 11 11 92
-43 183 -124 101 -89 228 -249 291 -368 54 -101 91 -234 103 -360 l9 -99 -4
115 c-7 194 -61 340 -189 514 -105 143 -291 306 -409 360 -23 10 -42 28 -48
44 -27 73 -108 226 -160 303 -85 127 -170 211 -254 251 -66 31 -77 33 -175 33
-58 -1 -151 -4 -207 -9 -87 -7 -108 -6 -153 10 -28 10 -57 26 -66 35 -13 15
-11 21 25 66 55 71 177 174 263 224 122 70 141 89 51 49z m-582 -236 c35 -14
73 -34 84 -44 11 -10 31 -21 45 -24 33 -10 70 -28 70 -36 0 -3 -27 -35 -60
-70 -32 -36 -59 -69 -60 -73 0 -10 -35 -42 -62 -57 -14 -8 -22 -5 -39 14 -26
30 -49 24 -49 -13 0 -38 -27 -73 -53 -69 -19 3 -22 8 -19 42 4 48 9 58 62 122
23 28 39 57 38 69 -3 17 2 20 30 19 17 -1 32 2 32 7 0 5 9 9 20 9 11 0 20 -6
20 -14 0 -16 21 -26 53 -26 19 0 17 3 -10 20 -18 11 -33 26 -33 33 0 15 -60
11 -70 -4 -11 -16 -65 7 -66 27 0 10 -4 31 -8 46 -7 22 -2 48 8 48 1 0 31 -12
67 -26z m246 -146 c-16 -10 -47 -10 -47 0 0 20 23 31 41 19 13 -8 15 -13 6
-19z m517 -17 c8 -12 -144 -24 -209 -16 -30 4 -52 11 -49 16 7 12 251 12 258
0z m-344 -17 c61 -10 152 -16 255 -15 88 0 175 -4 192 -10 39 -12 153 -133
217 -228 43 -64 96 -169 132 -261 10 -25 27 -56 39 -70 31 -35 69 -108 119
-225 68 -158 94 -284 76 -371 -6 -30 -15 -54 -20 -54 -5 0 -14 16 -21 35 -14
37 -14 38 -44 26 -14 -6 -25 -1 -41 16 -25 27 -34 29 -34 8 0 -8 -4 -15 -10
-15 -5 0 -10 9 -10 20 0 13 -7 20 -20 20 -22 0 -27 29 -9 47 17 17 4 41 -23
45 -15 2 -24 11 -26 26 -3 16 -10 22 -28 22 -18 0 -24 5 -24 23 0 13 5 28 12
35 9 9 7 12 -11 12 -16 0 -26 10 -37 35 -11 26 -20 35 -38 35 -30 0 -57 25
-49 46 4 11 13 14 30 9 20 -5 24 -2 21 12 -2 10 -14 19 -26 21 -31 5 -39 28
-18 51 13 14 14 21 6 26 -12 8 -87 -12 -104 -27 -14 -11 -36 11 -36 36 0 11
-7 30 -15 40 -8 11 -15 28 -15 38 0 11 -7 18 -19 18 -15 0 -20 -11 -27 -62 -8
-55 -12 -63 -32 -66 -28 -4 -72 23 -72 43 0 9 10 15 25 15 28 0 29 3 14 31 -8
16 -7 25 4 37 20 23 29 73 17 92 -7 12 -15 13 -39 3 -24 -8 -31 -8 -35 3 -3 7
-16 16 -30 20 -13 3 -26 14 -29 25 -8 29 -22 23 -36 -16 -13 -36 -43 -60 -65
-52 -11 4 -11 15 -1 53 12 49 0 114 -24 122 -15 5 -14 -11 1 -26 9 -9 8 -15
-6 -25 -16 -11 -16 -17 -6 -34 19 -30 6 -57 -24 -49 -16 4 -29 -1 -41 -14 -24
-26 -33 -25 -67 7 -32 30 -38 77 -12 87 21 8 44 -11 44 -35 0 -11 4 -19 10
-19 16 0 23 49 10 65 -6 8 -9 23 -5 35 5 17 2 20 -21 20 -24 0 -26 3 -20 30 8
42 -16 39 -40 -5 -10 -19 -23 -34 -29 -32 -16 6 -43 -37 -47 -74 -3 -30 -6
-34 -29 -32 -23 1 -27 -3 -32 -34 -7 -44 -33 -73 -63 -73 -29 0 -43 21 -22 33
13 9 13 14 1 37 -7 15 -23 30 -35 33 -18 5 -20 11 -15 42 5 32 3 37 -19 45
-13 5 -24 14 -24 19 0 5 -10 11 -22 13 -32 4 -37 44 -7 53 21 7 21 9 6 20 -23
16 -21 27 4 44 18 10 19 15 8 22 -11 8 -9 13 11 29 14 12 55 50 91 86 l65 66
110 -73 c114 -77 169 -117 244 -179 97 -79 310 -215 310 -196 0 2 -28 20 -62
39 -35 20 -134 89 -220 154 -86 65 -195 147 -242 182 -47 35 -86 68 -86 72 0
14 85 11 190 -7z m356 -821 c-10 -10 -19 5 -10 18 6 11 8 11 12 0 2 -7 1 -15
-2 -18z m-149 -5 c13 -12 23 -27 23 -34 0 -21 20 -27 45 -14 27 14 55 7 55
-13 0 -9 -9 -12 -29 -9 -16 2 -32 -1 -35 -7 -13 -21 -37 -11 -51 22 -8 19 -21
39 -29 47 -16 13 -21 30 -9 30 4 0 17 -10 30 -22z m682 -575 c12 -24 9 -112
-5 -121 -6 -4 -14 -22 -17 -39 -6 -30 -4 -33 18 -33 30 0 41 -16 24 -36 -6 -8
-10 -16 -8 -17 2 -1 16 -9 31 -16 22 -11 27 -20 26 -47 -1 -40 -23 -45 -39
-10 -6 13 -22 29 -34 34 -13 6 -26 20 -30 31 -3 12 -15 21 -26 21 -16 0 -19 7
-19 42 0 37 -5 48 -40 79 -22 20 -42 34 -45 31 -3 -3 -5 0 -5 6 0 7 9 12 19
12 11 0 23 4 26 10 3 5 19 7 35 3 33 -6 62 11 59 36 -3 36 14 44 30 14z m-229
-101 c0 -11 -11 -24 -25 -30 -31 -14 -32 -6 -3 25 26 28 28 28 28 5z m420
-292 c0 -5 -5 -10 -11 -10 -5 0 -7 5 -4 10 3 6 8 10 11 10 2 0 4 -4 4 -10z
m-85 -100 c3 -5 2 -26 -4 -45 -8 -30 -6 -43 11 -75 19 -36 20 -43 8 -79 -7
-22 -10 -51 -8 -65 4 -17 1 -26 -8 -26 -7 0 -16 -9 -19 -20 -8 -26 -37 -26
-53 1 -10 15 -10 24 -2 34 9 11 3 19 -28 39 -41 26 -60 46 -44 46 5 0 21 -9
35 -20 45 -35 59 -27 53 32 -3 28 -10 54 -17 59 -9 5 -8 15 4 42 10 19 17 47
17 61 0 21 5 26 24 26 14 0 28 -4 31 -10z m-40 -398 c-18 -2 -33 2 -41 12 -16
23 -41 20 -47 -6 -4 -12 -9 -19 -12 -16 -4 3 0 19 9 36 l15 29 53 -26 c51 -25
52 -26 23 -29z m-85 -82 c0 -5 -2 -10 -4 -10 -3 0 -8 5 -11 10 -3 6 -1 10 4
10 6 0 11 -4 11 -10z m-208 -692 c-7 -7 -12 -8 -12 -2 0 14 12 26 19 19 2 -3
-1 -11 -7 -17z m127 -204 c49 -10 35 -44 -18 -44 -11 0 -33 -24 -57 -62 -72
-118 -79 -127 -96 -133 -10 -4 -18 -13 -18 -21 0 -8 -8 -14 -17 -14 -10 0 -35
-3 -55 -6 -43 -7 -47 3 -26 63 10 28 17 33 43 33 42 0 115 76 146 152 14 34
41 43 98 32z m-169 -38 c0 -3 -4 -8 -10 -11 -5 -3 -10 -1 -10 4 0 6 5 11 10
11 6 0 10 -2 10 -4z m78 -203 c2 -8 -5 -13 -17 -13 -12 0 -21 6 -21 16 0 18
31 15 38 -3z m-228 -42 c0 -5 -9 -11 -21 -14 -16 -4 -18 -3 -8 9 13 16 29 19
29 5z m518 -901 c-3 -82 -8 -102 -33 -148 -36 -66 -91 -117 -164 -150 -47 -22
-70 -27 -146 -27 -76 0 -96 3 -126 23 -51 31 -72 80 -67 152 8 115 87 170 307
215 68 14 147 36 175 48 l51 24 4 -21 c1 -12 1 -64 -1 -116z"/>
<path d="M8060 7067 c0 -10 112 -48 225 -77 61 -16 119 -32 129 -36 12 -5 17
-4 13 3 -4 5 -44 20 -89 32 -91 25 -240 68 -263 77 -8 4 -15 4 -15 1z"/>
<path d="M5960 7535 c0 -19 2 -35 4 -35 2 0 6 16 8 35 2 19 0 35 -4 35 -4 0
-8 -16 -8 -35z"/>
<path d="M2099 6323 c-6 -16 -28 -77 -49 -138 -21 -60 -69 -193 -105 -295 -37
-102 -82 -228 -100 -280 -19 -52 -61 -171 -95 -265 -34 -93 -76 -213 -95 -265
-18 -52 -63 -178 -100 -280 -37 -102 -82 -228 -100 -281 -18 -53 -38 -106 -44
-117 l-12 -22 219 0 220 0 68 200 67 200 370 -2 370 -3 33 -105 c19 -58 46
-147 60 -197 l27 -93 222 0 222 0 -48 138 c-26 75 -96 272 -154 437 -58 165
-135 381 -170 480 -34 99 -102 290 -150 425 -47 135 -105 299 -128 365 l-43
120 -237 3 -237 2 -11 -27z m291 -565 c23 -73 59 -187 80 -253 21 -66 55 -173
75 -238 20 -65 38 -124 42 -132 4 -13 -30 -15 -246 -15 -184 0 -251 3 -251 12
0 6 18 66 39 132 22 67 76 235 121 374 44 138 85 252 90 252 5 0 28 -60 50
-132z"/>
<path d="M7894 6232 c-6 -4 -14 -24 -18 -44 -4 -21 -13 -44 -21 -51 -8 -8 -12
-17 -9 -20 9 -9 34 4 34 17 0 6 9 29 20 51 19 38 16 62 -6 47z"/>
<path d="M3755 5855 c-119 -21 -215 -73 -304 -162 -92 -94 -141 -183 -178
-320 -24 -89 -27 -114 -27 -283 0 -159 3 -196 22 -265 46 -170 146 -320 260
-393 167 -107 410 -114 578 -17 22 13 66 49 96 79 31 31 59 56 62 56 3 0 6
-74 6 -165 0 -168 14 -274 45 -349 8 -20 15 -39 15 -44 0 -5 -46 -12 -102 -14
-162 -8 -259 -58 -339 -174 -16 -24 -34 -44 -39 -44 -6 0 -10 42 -10 95 l0 95
-180 0 -180 0 0 -725 0 -725 193 0 192 0 -3 422 c-1 233 2 460 7 506 12 110
41 167 106 207 44 27 56 30 134 30 107 0 155 -21 189 -83 35 -63 43 -190 40
-665 l-3 -417 193 0 192 0 0 468 c0 514 2 530 60 610 43 60 100 95 164 100 99
8 174 -36 224 -132 l27 -51 3 -497 3 -498 189 0 190 0 0 518 c0 569 -3 599
-60 712 -36 71 -108 147 -178 187 -26 14 -48 27 -50 28 -1 1 9 26 22 56 35 76
53 152 61 257 l7 89 52 12 c97 22 175 67 248 143 l68 71 0 -97 0 -96 180 0
180 0 0 725 0 725 -187 -2 -188 -3 -5 -475 c-4 -423 -7 -479 -22 -513 -47
-104 -132 -164 -245 -174 -125 -10 -200 27 -248 122 l-30 60 -3 493 -3 492
-190 0 -190 0 3 -537 c3 -488 6 -543 22 -593 31 -92 66 -151 130 -218 l61 -64
3 -78 c5 -100 -13 -210 -42 -252 -41 -62 -134 -86 -209 -54 -49 20 -93 77
-106 136 -7 35 -11 308 -11 855 l0 805 -185 0 -185 0 0 -80 c0 -44 -3 -80 -6
-80 -3 0 -28 25 -56 55 -62 69 -163 120 -264 135 -86 12 -111 11 -199 -5z
m330 -330 c92 -45 160 -140 190 -267 39 -165 -7 -411 -93 -501 -15 -16 -47
-41 -72 -55 -41 -25 -54 -27 -150 -27 -94 0 -110 3 -155 27 -120 63 -175 187
-177 396 -1 196 55 329 175 414 74 53 191 58 282 13z"/>
<path d="M6800 5860 c-164 -21 -320 -91 -387 -176 -61 -78 -103 -192 -103
-281 l0 -43 173 0 174 0 12 43 c20 66 58 114 114 142 43 21 65 25 141 25 113
0 157 -12 205 -56 44 -39 56 -79 41 -134 -21 -77 -72 -100 -302 -135 -284 -44
-400 -82 -485 -158 -84 -77 -128 -204 -121 -357 6 -124 33 -194 98 -259 118
-118 364 -160 575 -99 85 24 155 58 203 98 20 17 39 30 42 30 3 0 4 -450 2
-1000 l-2 -1000 188 0 189 0 6 1419 c5 979 4 1442 -3 1495 -35 245 -141 366
-374 426 -92 23 -278 33 -386 20z m378 -920 c-3 -82 -8 -102 -33 -148 -36 -66
-91 -117 -164 -150 -47 -22 -70 -27 -146 -27 -76 0 -96 3 -126 23 -45 27 -69
75 -69 136 0 130 78 186 330 236 58 12 128 31 155 44 l50 23 4 -21 c1 -12 1
-64 -1 -116z"/>
<path d="M8670 4942 c0 -12 19 -26 26 -19 2 2 -2 10 -11 17 -9 8 -15 8 -15 2z"/>
<path d="M8689 4103 c-12 -15 -12 -16 4 -10 10 4 25 7 33 7 9 0 12 5 9 10 -9
15 -31 12 -46 -7z"/>
<path d="M6259 3980 c-293 -33 -448 -142 -504 -357 -8 -31 -15 -77 -15 -100
l0 -43 174 0 174 0 11 47 c16 60 88 136 146 152 59 16 194 14 248 -5 27 -9 59
-30 77 -50 25 -29 30 -43 30 -88 0 -105 -53 -135 -301 -172 -353 -52 -487
-113 -558 -254 -40 -82 -54 -156 -49 -269 3 -77 9 -107 30 -152 68 -148 217
-222 448 -223 92 0 130 4 190 23 89 27 161 62 212 104 21 17 40 28 42 26 1 -2
7 -29 12 -59 l9 -55 183 -3 182 -2 0 457 c0 252 -5 500 -10 551 -34 317 -197
455 -565 475 -49 3 -124 1 -166 -3z m349 -920 c-3 -82 -8 -102 -33 -148 -36
-66 -91 -117 -164 -150 -75 -35 -216 -39 -270 -7 -44 26 -71 78 -71 138 0 127
75 183 310 232 69 15 148 37 175 49 l50 23 4 -21 c1 -12 1 -64 -1 -116z"/>
</g>
</svg>
